<svg xmlns="http://www.w3.org/2000/svg" viewBox="0 0 100 35.8"><path d="M40 31.9h-.3c-.6-.2-.9-.8-.8-1.4l6.3-22.6c.1-.4.5-.8.9-.8.4-.1.9.1 1.1.5l6.3 11c.3.5.1 1.2-.4 1.5-.5.3-1.2.1-1.5-.4L46.7 11 41 31c-.1.5-.6.9-1 .9zM2.7 24.5h3.5V28H2.7zm3.6 3.6h3.5v3.5H6.3zm3.5-3.6h3.5V28H9.8zm3.5 3.6h3.5v3.5h-3.5zm3.5-3.6h3.5V28h-3.5zm3.6 3.6h3.5v3.5h-3.5zm3.5-3.6h3.5V28h-3.5zm3.5 3.6h3.5v3.5h-3.5zm3.6-3.6h3.5V28H31zm3.5 3.6H38v3.5h-3.5zm62.298 3.481h-3.5v-3.5h3.5zm-3.556-3.456h-3.5v-3.5h3.5zm-3.556 3.456h-3.5v-3.5h3.5zm-3.556-3.456h-3.5v-3.5h3.5z"/><path d="M82.674 31.581h-3.5v-3.5h3.5zm-3.555-3.456h-3.5v-3.5h3.5zm-3.556 3.456h-3.5v-3.5h3.5z"/><path d="M72.107 28.125h-3.5v-3.5h3.5zm-3.556 3.456h-3.5v-3.5h3.5zM11.9 8.6H8.8l-1.7 8.2H4.9l1.7-8.2H3.5l.4-1.8h8.4l-.4 1.8zm2.7.8c1.9 0 3 .7 3 1.8 0 .3-.1.7-.2 1.3l-.6 2.6c-.1.6-.2.9-.2 1.2 0 .2 0 .3.1.5h-2V16c-.6.6-1.4.9-2.3.9-1.4 0-2.3-.8-2.3-2 0-1.8 1.7-2.4 3.5-2.5 1.3-.1 2.1-.1 2.1-1.1 0-.5-.4-.8-1.2-.8-.8 0-1.3.3-1.5 1.1h-1.9c.3-1.7 1.8-2.2 3.5-2.2zm-.6 4.3c-.9.1-1.8.2-1.8 1.2 0 .6.4.9 1.1.9 1 0 1.6-.7 1.9-1.7l.2-.7c-.4.2-1 .3-1.4.3zm10.1-4.1h2.5l-3.3 2.9 1.9 4.4H23l-1.2-3.1-1.1.9-.5 2.2h-2l1.5-7.3h2l-.6 2.7 3-2.7zm5.4 7.5c-2.1 0-3.4-.9-3.4-3.2 0-2.5 1.5-4.5 4.2-4.5 1.7 0 3.1.8 3.1 2.7h-1.9c0-.8-.5-1.3-1.3-1.3-1.6 0-2.1 1.8-2.1 3.1 0 1.1.5 1.7 1.4 1.7.8 0 1.3-.5 1.6-1.4h2c-.5 1.9-1.7 2.9-3.6 2.9zm11.9-4.6c0 2.5-1.6 4.5-4.2 4.5-2.1 0-3.3-1.1-3.3-3.2 0-2.6 1.8-4.5 4.2-4.5 2.1.1 3.3 1.2 3.3 3.2zm-5.6 1.4c0 1.1.5 1.7 1.5 1.7 1.5 0 2.1-1.9 2.1-3.1 0-1-.5-1.6-1.4-1.6-1.2-.1-2.2 1.3-2.2 3zm37.1 2.9c0 2.5-1.6 4.5-4.2 4.5-2.1 0-3.3-1.1-3.3-3.2 0-2.6 1.8-4.5 4.2-4.5 2.1.1 3.3 1.2 3.3 3.2zm-5.6 1.4c0 1.1.5 1.7 1.5 1.7 1.5 0 2.1-1.9 2.1-3.1 0-1-.5-1.6-1.4-1.6-1.2-.1-2.2 1.3-2.2 3zM78 15.4l-1.2 5.8h-2l1.2-5.8h-2.4l.3-1.5h6.8l-.3 1.5H78zm10 1.4c0 2.5-1.6 4.5-4.2 4.5-2.1 0-3.3-1.1-3.3-3.2 0-2.6 1.8-4.5 4.2-4.5 2.1.1 3.3 1.2 3.3 3.2zm-5.6 1.4c0 1.1.5 1.7 1.5 1.7 1.5 0 2.1-1.9 2.1-3.1 0-1-.5-1.6-1.4-1.6-1.2-.1-2.2 1.3-2.2 3zm9.3-3.4c.6-.7 1.4-1.1 2.3-1.1 1.6 0 2.7 1.2 2.7 3.1 0 2.2-1.3 4.6-3.7 4.6-1.1 0-1.9-.5-2.3-1.2l-.8 3.6h-2L90 14h1.9l-.2.8zm-.6 3.5c0 1 .6 1.6 1.5 1.6 1.2 0 2.1-1.3 2.1-3 0-1-.5-1.6-1.5-1.6-1.6 0-2.1 1.8-2.1 3z"/><path d="M62 32.3c-.1 0-.1 0 0 0-1.3-.1-2.3-1.1-2.2-2.3l.8-18.1-5.6 7.7c-.7 1-2.1 1.2-3.1.5s-1.2-2.1-.5-3.1l9.8-14c.6-.8 1.6-1.1 2.5-.8.9.3 1.5 1.2 1.5 2.2l-1.1 25.7c0 1.2-1 2.2-2.1 2.2z" fill="#00dc96"/></svg>